# xmcd
#
# Track frame offsets: 
#        150
#        14370
#        23760
#        46853
#        83798
#        103238
#        128108
#        141998
#        160021
#        177009
#        193517
#        230192
#        245065
#        274098
#        303708
#        319233
#        339626
#
# Disc length: 4753 seconds
#
# Revision: 0
# Processed by: cddbd v1.5.2PL0 Copyright (c) Steve Scherf et al.
# Submitted via: ExactAudioCopyFreeDBPlugin 1.0
#
DISCID=f1128f11
DTITLE=Various Artist - Janis: Little Girl Blue - Original Motion Pic
DTITLE=ture Soundtrack
DYEAR=2015
DGENRE=Blues Rock
TTITLE0=Janis Joplin - Careless Love
TTITLE1=Big Brother and The Holding Company - Down On Me [Featuring Jani
TTITLE1=s Joplin]
TTITLE2=Janis Joplin - Women Is Losers [Live]
TTITLE3=Big Brother and The Holding Company - Ball And Chain [Featuring 
TTITLE3=Janis Joplin]
TTITLE4=Big Brother and The Holding Company - Piece Of My Heart
TTITLE5=Big Brother and The Holding Company - Catch Me Daddy [Live]
TTITLE6=Big Brother and The Holding Company - Magic Of Love [Live]
TTITLE7=Big Brother and The Holding Company - Summertime
TTITLE8=Big Brother and The Holding Company - Raise Your Hand [Live]
TTITLE9=Janis Joplin - Maybe
TTITLE10=Janis Joplin - Work Me, Lord [Live]
TTITLE11=Janis Joplin - Trust Me
TTITLE12=Janis Joplin - Cry Baby [Live]
TTITLE13=Janis Joplin - Tell Mama [Live]
TTITLE14=Janis Joplin - Get It While You Can
TTITLE15=Janis Joplin - Me And Bobby McGee
TTITLE16=Janis Joplin - Little Girl Blue
EXTD=
EXTT0=
EXTT1=
EXTT2=
EXTT3=
EXTT4=
EXTT5=
EXTT6=
EXTT7=
EXTT8=
EXTT9=
EXTT10=
EXTT11=
EXTT12=
EXTT13=
EXTT14=
EXTT15=
EXTT16=
PLAYORDER=
